<svg width="32" height="32" viewBox="0 0 32 32" fill="none" xmlns="http://www.w3.org/2000/svg">
  <rect width="32" height="32" rx="4" fill="#8B33CC" />
  <path d="M16 6C10.477 6 6 10.477 6 16C6 20.418 8.865 24.166 12.838 25.489C13.338 25.583 13.535 25.278 13.535 25.015C13.535 24.776 13.526 23.988 13.521 23.141C10.726 23.791 10.131 21.726 10.131 21.726C9.671 20.473 8.968 20.167 8.968 20.167C7.996 19.56 9.037 19.573 9.037 19.573C10.11 19.647 10.645 20.594 10.645 20.594C11.598 22.172 13.131 21.777 13.554 21.522C13.647 20.839 13.915 20.371 14.207 20.093C11.99 19.815 9.658 18.985 9.658 15.077C9.658 13.898 10.058 12.959 10.665 12.209C10.558 11.957 10.207 10.918 10.762 9.272C10.762 9.272 11.667 8.903 13.512 10.181C14.295 9.929 15.152 9.803 16 9.799C16.848 9.803 17.705 9.929 18.488 10.181C20.332 8.903 21.237 9.272 21.237 9.272C21.792 10.918 21.441 11.957 21.334 12.209C21.941 12.959 22.341 13.898 22.341 15.077C22.341 18.996 20.005 19.812 17.781 20.087C18.142 20.426 18.462 21.1 18.462 22.131C18.462 23.591 18.449 24.685 18.449 25.015C18.449 25.28 18.643 25.588 19.151 25.487C23.137 24.161 26 20.417 26 16C26 10.477 21.523 6 16 6Z" fill="#F5F5DC"/>
</svg> 