<svg width="32" height="32" viewBox="0 0 32 32" fill="none" xmlns="http://www.w3.org/2000/svg">
  <rect width="32" height="32" rx="4" fill="#1E90FF" />
  <path d="M11 12H8V24H11V12Z" fill="#F5F5DC"/>
  <path d="M9.5 7C8.119 7 7 8.119 7 9.5C7 10.881 8.119 12 9.5 12C10.881 12 12 10.881 12 9.5C12 8.119 10.881 7 9.5 7Z" fill="#F5F5DC"/>
  <path d="M24 16.612C24 14.421 22.422 13 20.286 13C19.188 13 18.225 13.421 17.595 14.198V13H15V24H17.595V18.051C17.595 16.838 18.359 16.036 19.435 16.036C20.511 16.036 21 16.838 21 18.051V24H24V16.612Z" fill="#F5F5DC"/>
</svg> 