<svg width="32" height="32" viewBox="0 0 32 32" fill="none" xmlns="http://www.w3.org/2000/svg">
  <rect width="32" height="32" rx="4" fill="#333333" />
  <path d="M23.634 11.661C24.3 11.083 24.864 10.369 25.25 9.553C24.537 9.858 23.764 10.071 22.955 10.17C23.8 9.67 24.431 8.873 24.731 7.92C23.955 8.387 23.1 8.722 22.194 8.9C21.447 8.109 20.386 7.625 19.212 7.625C16.96 7.625 15.138 9.448 15.138 11.7C15.138 12.022 15.174 12.337 15.245 12.64C11.898 12.47 8.909 10.847 6.937 8.366C6.585 8.978 6.384 9.67 6.384 10.408C6.384 11.808 7.093 13.042 8.181 13.758C7.516 13.737 6.884 13.561 6.33 13.274V13.324C6.33 15.293 7.734 16.92 9.586 17.302C9.242 17.4 8.88 17.449 8.505 17.449C8.236 17.449 7.973 17.424 7.719 17.377C8.251 18.976 9.738 20.116 11.495 20.148C10.107 21.208 8.356 21.85 6.461 21.85C6.13 21.85 5.803 21.832 5.479 21.795C7.258 22.916 9.365 23.575 11.632 23.575C19.203 23.575 23.328 17.514 23.328 12.291C23.328 12.112 23.323 11.932 23.315 11.754C24.102 11.1 24.8 10.305 25.375 9.416C24.623 9.745 23.817 9.974 22.971 10.08C23.25 10.012 23.515 9.846 23.634 11.661Z" fill="#F5F5DC"/>
</svg> 