<svg width="32" height="32" viewBox="0 0 32 32" fill="none" xmlns="http://www.w3.org/2000/svg">
  <rect width="32" height="32" rx="4" fill="#FF0000" />
  <path d="M24.0623 11.7473C23.9312 11.2654 23.6934 10.8274 23.3713 10.4698C23.0492 10.1122 22.6525 9.84706 22.211 9.69927C20.6347 9.2 15.9997 9.2 15.9997 9.2C15.9997 9.2 11.3647 9.2 9.78834 9.69927C9.34684 9.84706 8.95014 10.1122 8.62804 10.4698C8.30594 10.8274 8.06814 11.2654 7.93701 11.7473C7.60527 13.9389 7.60792 16.16 7.93967 18.3507C8.07081 18.8327 8.30861 19.2706 8.63071 19.6282C8.95281 19.9858 9.34951 20.251 9.79101 20.3987C11.3673 20.8 16.0023 20.8 16.0023 20.8C16.0023 20.8 20.6373 20.8 22.2137 20.3987C22.6552 20.251 23.0519 19.9858 23.374 19.6282C23.6961 19.2706 23.9339 18.8327 24.065 18.3507C24.3968 16.16 24.3941 13.9389 24.0623 11.7473ZM14.4023 17.2V12.8L18.8023 15L14.4023 17.2Z" fill="#F5F5DC"/>
</svg> 